<svg id="Icons" xmlns="http://www.w3.org/2000/svg" viewBox="0 0 66.24 66.24"><defs><style>.cls-1{fill:#29a7df;}.cls-2{fill:#fff;}</style></defs><path class="cls-1" d="M33.12,0A33.12,33.12,0,1,0,66.24,33.12,33.12,33.12,0,0,0,33.12,0"/><path class="cls-2" d="M32.62,35a2.17,2.17,0,0,1-.19-.74l-1.19,0A1.91,1.91,0,0,0,32,36a3,3,0,0,0,1.3.35l0,.87h.42l0-.88a2.7,2.7,0,0,0,1.17-.39,1.77,1.77,0,0,0,.77-1.64A1.54,1.54,0,0,0,35.07,33a6,6,0,0,0-1.41-.6l0-1.67a.68.68,0,0,1,.61.32,1.53,1.53,0,0,1,.15.57l1.15,0a1.74,1.74,0,0,0-.8-1.51,2.36,2.36,0,0,0-1.13-.32l0-.59h-.43l0,.58a3.27,3.27,0,0,0-.68.13,1.87,1.87,0,0,0-.69.45,2,2,0,0,0-.36.59,2,2,0,0,0-.11.75,1.66,1.66,0,0,0,.37,1,2.21,2.21,0,0,0,1.21.65l.36.1.05,1.88A.92.92,0,0,1,32.62,35Zm1.59-1.14a.78.78,0,0,1,.28.6.83.83,0,0,1-.26.7,1.14,1.14,0,0,1-.5.18l0-1.73A2.1,2.1,0,0,1,34.21,33.82ZM32.74,32a.69.69,0,0,1-.29-.57.72.72,0,0,1,.17-.54.74.74,0,0,1,.56-.22l0,1.54A1.52,1.52,0,0,1,32.74,32Z"/><path class="cls-2" d="M46,41.27a6.56,6.56,0,0,1,.38-1.33,7.16,7.16,0,0,1,4.87-4.34l0-3.92a7.17,7.17,0,0,1-5-6.43l-18,.07L20.45,41.08l0,.13s0,.1,0,.15Zm-18-10a5.88,5.88,0,0,1,5.44-4,5.67,5.67,0,0,1,1.49.15A5.9,5.9,0,0,1,39.42,33a5.29,5.29,0,0,1-.07,1.17.09.09,0,0,0,0,.07h0a5.9,5.9,0,0,1-3.38,4.3h0a5.75,5.75,0,0,1-2.25.51A6,6,0,0,1,32.5,39a.09.09,0,0,0-.07,0v0a5.93,5.93,0,0,1-4.3-3.38h0v0a5.83,5.83,0,0,1-.51-2.25A5.77,5.77,0,0,1,27.91,31.27Z"/><path class="cls-2" d="M23,25H17.66a1.29,1.29,0,1,0,0,2.57H23A1.29,1.29,0,0,0,23,25Z"/><path class="cls-2" d="M20,31.86H7.82a1.29,1.29,0,1,0,0,2.57H20a1.29,1.29,0,1,0,0-2.57Z"/><path class="cls-2" d="M11.71,41.58H17A1.29,1.29,0,0,0,17,39H11.7a1.29,1.29,0,1,0,0,2.57Z"/><path class="cls-2" d="M55.49,43.76l-.08-21.41a.81.81,0,0,0-.23-.54.75.75,0,0,0-.53-.22h0l-24.36,0-1,2,18.64-.07,0,.7a4.56,4.56,0,0,0,0,.52l-.54.15h0l.54,0A5.87,5.87,0,0,0,48.37,27l.16.35a5.94,5.94,0,0,0,3.41,2.91c.21.07.42.13.64.18l.43.09.1.46,0,5.92-.46.07a5.73,5.73,0,0,0-.74.16,6,6,0,0,0-4.07,3.83,6.52,6.52,0,0,0-.2.79,4.66,4.66,0,0,0-.08.64l0,.61-27.77.11L19,44.66l35.74-.14a.86.86,0,0,0,.27-.05A.77.77,0,0,0,55.49,43.76Z"/></svg>