<svg id="Icons" xmlns="http://www.w3.org/2000/svg" viewBox="0 0 66.24 66.24"><defs><style>.cls-1{fill:#29a7df;}.cls-2{fill:#fff;}</style></defs><path class="cls-1" d="M33.12,0A33.12,33.12,0,1,0,66.24,33.12,33.12,33.12,0,0,0,33.12,0"/><path class="cls-2" d="M27.1,13.89c-.2.07-.32.07-.41-.09C26.83,13.7,27,13.75,27.1,13.89Z"/><path class="cls-2" d="M40.72,51.8V48.34H25.52V51.8Z"/><path class="cls-2" d="M26.67,54.61l1,1.49a3,3,0,0,0,2.53,1.36h5.86a3,3,0,0,0,2.53-1.36l1-1.49Z"/><path class="cls-2" d="M33,22a3.7,3.7,0,1,0,3.7,3.7A3.7,3.7,0,0,0,33,22Z"/><path class="cls-2" d="M33.07,8.81A16.71,16.71,0,0,0,20.54,36.53a27.44,27.44,0,0,1,5,8.69.22.22,0,0,0,0,.08H40.73a.22.22,0,0,0,0-.08,27.44,27.44,0,0,1,5-8.69A16.71,16.71,0,0,0,33.07,8.81Zm10.85,20.3a11.5,11.5,0,0,1-2.53,4.38.55.55,0,0,1-.68.1l-2-1.13a9.33,9.33,0,0,1-2.82,1.62v2.27a.57.57,0,0,1-.43.55,11.62,11.62,0,0,1-5.05,0,.57.57,0,0,1-.44-.55V34.08a8.78,8.78,0,0,1-2.81-1.62l-2,1.13a.55.55,0,0,1-.68-.1A11.37,11.37,0,0,1,22,29.11a.55.55,0,0,1,.25-.65l2-1.13a8.88,8.88,0,0,1,0-3.25l-2-1.14a.55.55,0,0,1-.25-.65,11.26,11.26,0,0,1,2.53-4.37.55.55,0,0,1,.68-.11l2,1.14A8.78,8.78,0,0,1,30,17.33V15.05a.56.56,0,0,1,.43-.54,11.63,11.63,0,0,1,5,0,.55.55,0,0,1,.44.54v2.27A8.62,8.62,0,0,1,38.73,19l2-1.14a.58.58,0,0,1,.69.1,11.63,11.63,0,0,1,2.53,4.38.57.57,0,0,1-.26.65l-2,1.14a8.82,8.82,0,0,1,0,3.24l2,1.14A.57.57,0,0,1,43.92,29.11Z"/></svg>