<svg id="Icons" xmlns="http://www.w3.org/2000/svg" viewBox="0 0 66.24 66.24"><defs><style>.cls-1{fill:#29a7df;}.cls-2{fill:#fff;}</style></defs><circle class="cls-1" cx="33.12" cy="33.12" r="33.12"/><path class="cls-2" d="M38,29.83a1.18,1.18,0,0,0,.23-1.13,1.47,1.47,0,0,0-.44-.65l.24-.31-.22-.18-.25.31a1.77,1.77,0,0,0-.4-.23,1.25,1.25,0,0,0-.55-.06,1.21,1.21,0,0,0-.44.15,1.45,1.45,0,0,0-.38.33,1.13,1.13,0,0,0-.26.71,1.58,1.58,0,0,0,.34.85l.15.21-.79,1a.63.63,0,0,1-.19-.49,1.46,1.46,0,0,1,.22-.46l-.63-.49a1.28,1.28,0,0,0-.33,1.21,1.94,1.94,0,0,0,.53.74l-.37.46.23.18.37-.47a1.74,1.74,0,0,0,.77.31,1.21,1.21,0,0,0,1.1-.52,1,1,0,0,0,.23-.93,3.93,3.93,0,0,0-.47-.92l.69-.88a.44.44,0,0,1,.18.43,1.21,1.21,0,0,1-.17.35Zm-1.77,1a.54.54,0,0,1-.44.25.74.74,0,0,1-.33-.12l.72-.91a1.1,1.1,0,0,1,.16.35A.5.5,0,0,1,36.25,30.86Zm.28-1.66a1.18,1.18,0,0,1-.16-.32.5.5,0,0,1,.1-.42.47.47,0,0,1,.32-.2.53.53,0,0,1,.39.12Z"/><path class="cls-2" d="M45.92,31.11,33.12,20.52l0,0-.06.05h0a4.67,4.67,0,0,1-4.48.82A4.93,4.93,0,0,1,28,21.2l-1.75,2.1h0a4.71,4.71,0,0,1,.08,5.16L39.13,39a4.58,4.58,0,0,1,.74-.5,4.66,4.66,0,0,1,4.25-.14l1.63-2A4.67,4.67,0,0,1,45.92,31.11Zm-6.61,1.06a3.49,3.49,0,0,1-.52.55l0,0h0a3.85,3.85,0,0,1-3.49.75h0a3.89,3.89,0,0,1-1.34-.69,3.49,3.49,0,0,1-.55-.52l0,0h0a3.88,3.88,0,0,1-.75-3.49h0a3.81,3.81,0,0,1,.69-1.34,3.84,3.84,0,0,1,5.41-.65,4.08,4.08,0,0,1,.68.7A3.84,3.84,0,0,1,39.31,32.17Z"/><path class="cls-2" d="M43.19,44.56l8.92-10.78a.88.88,0,0,0,.19-.62.84.84,0,0,0-.31-.58L30.39,14.71a.76.76,0,0,0-.26-.15.87.87,0,0,0-.94.26L20.27,25.61a.87.87,0,0,0,.12,1.2L42,44.68a.87.87,0,0,0,.27.14A.85.85,0,0,0,43.19,44.56Zm1.64-4.76a4.37,4.37,0,0,0-4.58,0,5.6,5.6,0,0,0-.49.36,3.61,3.61,0,0,0-.35.33l-.06.05L24.78,28.5l.07-.09a3.27,3.27,0,0,0,.25-.36,4.43,4.43,0,0,0,0-4.82L24.91,23l-.13-.16-.05-.05,2.5-3,.06,0c.14.08.28.16.43.23a3.91,3.91,0,0,0,.65.24l.08,0h0a4.44,4.44,0,0,0,4.05-.93,2.65,2.65,0,0,0,.34-.33l.06-.06.41.34L47.53,31.1l-.06.07a3.58,3.58,0,0,0-.26.29l0,0,0,0A4.33,4.33,0,0,0,46.44,33l0,.09h0a4.41,4.41,0,0,0,.52,3.47,3.71,3.71,0,0,0,.28.41l0,0-2.36,2.86Z"/><path class="cls-2" d="M36.26,41.25v0c-.08.13-.14.26-.21.4l0,.07L19.09,35.86l0-.11a3.89,3.89,0,0,0,.1-.4,4.19,4.19,0,0,0-1.62-4.26l-.22-.15a1,1,0,0,0-.17-.1l-.06,0,1.22-3.51h.07a3.5,3.5,0,0,0,.45.07,3.87,3.87,0,0,0,.59,0l-.23-.19a1.44,1.44,0,0,1-.19-2L21.73,22l-2.58-.9a1.11,1.11,0,0,0-1.41.68L13.21,34.78a1.12,1.12,0,0,0,.68,1.41L40,45.26a1.32,1.32,0,0,0,.39.06,1.22,1.22,0,0,0,.56-.17Z"/><path class="cls-2" d="M20.59,28.44a4.48,4.48,0,0,1-.64.07l-.51,0-.8,2.3h0a4.21,4.21,0,0,1,1.68,4.29l14,4.86.06-.1Z"/><path class="cls-2" d="M48.32,26.78l.37.76a.43.43,0,0,0,.55.2,7.05,7.05,0,0,1,7.36,1.14h0A7.08,7.08,0,0,1,59,35.37v0a1.42,1.42,0,0,1,0,.2l0,.18a.31.31,0,0,0,0,.08,4.71,4.71,0,0,1-.19.64h0a7.07,7.07,0,0,1-6.17,4.79l-.17-2.43a.43.43,0,0,0-.75-.24l-3,3.44a.43.43,0,0,0,.05.6l3.4,2.91a.42.42,0,0,0,.69-.36L52.64,43a8.77,8.77,0,0,0,7.9-6.76v0a.51.51,0,0,0,0-.13l0-.14v0a8.67,8.67,0,0,0-.11-3.73,8.51,8.51,0,0,0-1.14-2.65l0-.05,0-.07A8.75,8.75,0,0,0,48.53,26.2.42.42,0,0,0,48.32,26.78Z"/><path class="cls-2" d="M20.08,42.2l-.62-.57a.43.43,0,0,0-.59,0,7,7,0,0,1-7.27,1.62h0A7,7,0,0,1,7,38.08v0a1.06,1.06,0,0,1,0-.19l0-.19s0,0,0-.08q0-.33-.06-.66h0a7,7,0,0,1,4-6.71l1,2.2a.42.42,0,0,0,.78,0l1.49-4.28a.42.42,0,0,0-.26-.54L9.72,26.07a.42.42,0,0,0-.52.58l1,2a8.77,8.77,0,0,0-4.9,9.17v.06s0,.08,0,.12l0,.14v0a8.69,8.69,0,0,0,1.46,3.43,8.59,8.59,0,0,0,2,2l0,0,.07.05a8.76,8.76,0,0,0,11.17-1A.43.43,0,0,0,20.08,42.2Z"/></svg>