<svg id="Icons" xmlns="http://www.w3.org/2000/svg" viewBox="0 0 66.24 66.24"><defs><style>.cls-1{fill:#29a7df;}.cls-2{fill:#fff;}</style></defs><path class="cls-1" d="M33.12,0A33.12,33.12,0,1,0,66.24,33.12,33.12,33.12,0,0,0,33.12,0"/><path class="cls-2" d="M52.47,28.72,41.89,20.05v-6.2a3.43,3.43,0,0,0-1-2.59,3.89,3.89,0,0,0-2.58-.86H19.87a3.31,3.31,0,0,0-2.58.86,3.27,3.27,0,0,0-1,2.59V47.42a3.61,3.61,0,0,0,.13,1.23,3.25,3.25,0,0,0,3.44,2.46H38.32a3.81,3.81,0,0,0,1.91-.48l6.49,5.21L51,50.49A6.59,6.59,0,0,0,52.44,47l1.5-14.79A3.93,3.93,0,0,0,52.47,28.72ZM29,49.27a1.45,1.45,0,0,1-1.47-1.6,1.6,1.6,0,1,1,3.19,0A1.65,1.65,0,0,1,29,49.27Zm.13-5.05H18.52V15H39.43v16.9l-2.47-2a4.81,4.81,0,0,0-2.49-1A5.62,5.62,0,1,0,30.67,35l5.6,4.49a1.47,1.47,0,0,1,.32.38l2.5,4.33Zm1-13.61a2.78,2.78,0,0,0-.33.51l-1.54,1.53a.36.36,0,0,1-.51,0l-2.36-2.36a.36.36,0,0,1,0-.51l.51-.52a.36.36,0,0,1,.51,0L28,30.85l3.41-3.4a.36.36,0,0,1,.51,0l.52.51a.37.37,0,0,1,0,.52l-1,1A4.89,4.89,0,0,0,30.13,30.61ZM49.8,46.74a4,4,0,0,1-.86,2.09l-2.63,3.28L40.8,47.68l.81-1,.15-.2v0a2.63,2.63,0,0,0,.07-2.77L39.43,39.5h0l-.55-.94a3.76,3.76,0,0,0-1-1.11L32.26,32.9a.46.46,0,0,1-.07-.63,3.7,3.7,0,0,1,.28-.28.27.27,0,0,0,.08-.07l.27-.17.13-.07.22-.1.19,0,.12,0a2.38,2.38,0,0,1,.46,0h0l.28,0a2.31,2.31,0,0,1,1.06.45l4.9,3.94.18.13,0,0,.13.08.07,0,.13.06.07,0,.13,0,.07,0,.15,0h0l.19,0h0a2.65,2.65,0,0,0,1.76-.32l3.28-1.92a2,2,0,0,0,.24-3.27L41.89,27h0V23.56l8.94,7.22A1.33,1.33,0,0,1,51.3,32Zm-7.91-13V30.41l2.42,2Z"/></svg>