<svg id="Layer_1" data-name="Layer 1" xmlns="http://www.w3.org/2000/svg" viewBox="0 0 600 600"><defs><style>.cls-1{fill:#fff;}</style></defs><path class="cls-1" d="M455.39,221.72H408.06V159.8a31.81,31.81,0,0,0-31.94-32H144.61a31.81,31.81,0,0,0-31.94,32V440.2a31.81,31.81,0,0,0,31.94,31.95H431.72a55.54,55.54,0,0,0,55.61-55.61V254.05A32.15,32.15,0,0,0,455.39,221.72ZM188.26,406.38a27,27,0,1,1,27-27A27,27,0,0,1,188.26,406.38Zm186.18,2.49a5.13,5.13,0,0,1-5.13,5.13H251a5.13,5.13,0,0,1-5.13-5.13V397.58a5.13,5.13,0,0,1,5.13-5.13H369.31a5.13,5.13,0,0,1,5.13,5.13Zm0-46.23a5.13,5.13,0,0,1-5.13,5.13H251a5.13,5.13,0,0,1-5.13-5.13V351.35a5.13,5.13,0,0,1,5.13-5.12H369.31a5.13,5.13,0,0,1,5.13,5.12Zm0-46.22a5.13,5.13,0,0,1-5.13,5.12H152.53a5.12,5.12,0,0,1-5.12-5.12V305.13a5.13,5.13,0,0,1,5.12-5.13H369.31a5.13,5.13,0,0,1,5.13,5.13Zm0-46.23a5.13,5.13,0,0,1-5.13,5.13H152.53a5.13,5.13,0,0,1-5.12-5.13V258.9a5.13,5.13,0,0,1,5.12-5.13H369.31a5.13,5.13,0,0,1,5.13,5.13Zm0-54a5.13,5.13,0,0,1-5.13,5.13H152.53a5.13,5.13,0,0,1-5.12-5.13V163.7a5.12,5.12,0,0,1,5.12-5.13H369.31a5.13,5.13,0,0,1,5.13,5.13ZM455,416.93s0,23.67-23.27,23.67a23.74,23.74,0,0,1-23.66-23.67V254.05H455Z"/></svg>