<svg id="Layer_1" data-name="Layer 1" xmlns="http://www.w3.org/2000/svg" viewBox="0 0 600 600"><defs><style>.cls-1{fill:#fff;fill-rule:evenodd;}</style></defs><path class="cls-1" d="M469.1,136.46H130.9a29.11,29.11,0,0,0-29.1,29.11V375.8a29.1,29.1,0,0,0,29.1,29.11h21.88v86.26a13.91,13.91,0,0,0,24.2,9.37l87.13-95.63h205a29.1,29.1,0,0,0,29.1-29.11V165.57A29.11,29.11,0,0,0,469.1,136.46ZM435,350.65H165a12,12,0,0,1,0-24H435a12,12,0,0,1,0,24Zm0-68H165a12,12,0,0,1,0-24H435a12,12,0,0,1,0,24Zm0-68H165a12,12,0,0,1,0-24H435a12,12,0,0,1,0,24Z"/></svg>