<?xml version="1.0" encoding="utf-8"?>
<!-- Generator: Adobe Illustrator 24.0.1, SVG Export Plug-In . SVG Version: 6.00 Build 0)  -->
<svg version="1.1" id="Layer_1" xmlns="http://www.w3.org/2000/svg" xmlns:xlink="http://www.w3.org/1999/xlink" x="0px" y="0px"
	 viewBox="0 0 1000 1000" style="enable-background:new 0 0 1000 1000;" xml:space="preserve">
<style type="text/css">
	.st0{fill:#0079C2;}
	.st1{fill:#FFFFFF;}
	.st2{fill:#29A9E0;}
</style>
<g>
	<path class="st2" d="M500.8,653.7c-21.6,0-39.2,17.5-39.2,39.2c0,21.6,17.5,39.2,39.2,39.2c21.6,0,39.2-17.5,39.2-39.2
		C540,671.2,522.5,653.7,500.8,653.7z"/>
	
		<ellipse transform="matrix(0.7071 -0.7071 0.7071 0.7071 -261.1069 523.0399)" class="st2" cx="500.8" cy="576.7" rx="39.2" ry="39.2"/>
	<path class="st2" d="M378.6,421.4c-21.6,0-39.2,17.5-39.2,39.2c0,21.6,17.5,39.2,39.2,39.2c21.6,0,39.2-17.5,39.2-39.2
		C417.7,438.9,400.2,421.4,378.6,421.4z"/>
	<path class="st2" d="M378.6,537.5c-21.6,0-39.2,17.5-39.2,39.2s17.5,39.2,39.2,39.2c21.6,0,39.2-17.5,39.2-39.2
		S400.2,537.5,378.6,537.5z"/>
	<path class="st2" d="M378.6,653.7c-21.6,0-39.2,17.5-39.2,39.2c0,21.6,17.5,39.2,39.2,39.2c21.6,0,39.2-17.5,39.2-39.2
		C417.7,671.2,400.2,653.7,378.6,653.7z"/>
	
		<ellipse transform="matrix(7.088817e-02 -0.9975 0.9975 7.088817e-02 5.9243 927.4488)" class="st2" cx="500.8" cy="460.5" rx="39.2" ry="39.2"/>
	<path class="st2" d="M623.1,653.7c-21.6,0-39.2,17.5-39.2,39.2c0,21.6,17.5,39.2,39.2,39.2c21.6,0,39.2-17.5,39.2-39.2
		C662.3,671.2,644.7,653.7,623.1,653.7z"/>
	<path class="st2" d="M621,271.1H380.6c-22.8,0-41.3,18.5-41.3,41.3v42.8c0,9.8,7.9,17.7,17.7,17.7h287.5c9.8,0,17.7-7.9,17.7-17.7
		v-42.8C662.3,289.6,643.8,271.1,621,271.1z"/>
	
		<ellipse transform="matrix(0.2298 -0.9732 0.9732 0.2298 31.693 961.1343)" class="st2" cx="623.1" cy="460.5" rx="39.2" ry="39.2"/>
	
		<ellipse transform="matrix(0.9571 -0.2898 0.2898 0.9571 -140.385 205.3003)" class="st2" cx="623.1" cy="576.7" rx="39.2" ry="39.2"/>
	<path class="st2" d="M500,31C241,31,31,241,31,500s210,469,469,469s469-210,469-469S759,31,500,31z M709.3,710
		c0,41.6-33.7,75.3-75.3,75.3H366c-41.6,0-75.3-33.7-75.3-75.3V290c0-41.6,33.7-75.3,75.3-75.3h268c41.6,0,75.3,33.7,75.3,75.3V710z
		"/>
</g>
</svg>
