<?xml version="1.0" encoding="utf-8"?>
<!-- Generator: Adobe Illustrator 16.0.0, SVG Export Plug-In . SVG Version: 6.00 Build 0)  -->
<!DOCTYPE svg PUBLIC "-//W3C//DTD SVG 1.1//EN" "http://www.w3.org/Graphics/SVG/1.1/DTD/svg11.dtd">
<svg version="1.1" id="Layer_1" xmlns="http://www.w3.org/2000/svg" xmlns:xlink="http://www.w3.org/1999/xlink" x="0px" y="0px"
	 width="99.487px" height="124.615px" viewBox="0 0 99.487 124.615" enable-background="new 0 0 99.487 124.615"
	 xml:space="preserve">
<g>
	<path fill="none" stroke="#1279BF" stroke-width="4" stroke-linecap="round" stroke-linejoin="round" stroke-miterlimit="10" d="
		M26.379,25.059c14.207-14.206,37.239-14.206,51.445,0s14.206,37.239,0,51.445c-7.103,7.104-16.412,10.654-25.722,10.654v28.586"/>
	
		<polyline fill="none" stroke="#4E4E4E" stroke-width="4" stroke-linecap="round" stroke-linejoin="round" stroke-miterlimit="10" points="
		65.632,34.84 52.102,50.782 57.43,62.805 	"/>
	
		<polyline fill="none" stroke="#1279BF" stroke-width="4" stroke-linecap="round" stroke-linejoin="round" stroke-miterlimit="10" points="
		42.06,27.32 23.652,27.32 23.652,8.913 	"/>
	<path fill="#1279BF" d="M36.863,87.563c-0.507,0-1.022-0.104-1.515-0.323l-0.31-0.14c-1.872-0.853-2.699-3.062-1.847-4.934
		c0.853-1.872,3.06-2.7,4.934-1.847l0.257,0.116c1.878,0.838,2.723,3.039,1.885,4.918C39.649,86.741,38.289,87.563,36.863,87.563
		 M23.8,77.741c-1.057,0-2.107-0.447-2.843-1.317l-0.22-0.261c-1.317-1.581-1.104-3.93,0.476-5.246
		c1.583-1.316,3.93-1.104,5.247,0.477l0.18,0.215c1.33,1.57,1.136,3.92-0.434,5.25C25.506,77.452,24.65,77.741,23.8,77.741
		 M16.269,63.231c-1.657,0-3.168-1.113-3.603-2.792l-0.082-0.321c-0.505-1.994,0.703-4.02,2.698-4.525
		c1.989-0.505,4.019,0.702,4.524,2.698l0.072,0.28c0.516,1.991-0.681,4.024-2.672,4.539C16.893,63.192,16.578,63.231,16.269,63.231
		 M15.794,46.857c-0.23,0-0.463-0.022-0.697-0.067c-2.015-0.389-3.343-2.301-2.961-4.317c0.008-0.038,0.029-0.143,0.037-0.181
		l0.036-0.183c0.416-2.015,2.387-3.315,4.4-2.896c2.015,0.415,3.311,2.386,2.896,4.4l-0.041,0.206
		C19.113,45.599,17.544,46.857,15.794,46.857"/>
</g>
<g>
	<polyline fill="none" stroke="#1279BF" stroke-width="4" stroke-linecap="round" stroke-miterlimit="10" points="192.781,59.93 
		172.385,80.327 151.989,59.93 	"/>
	<line fill="none" stroke="#1279BF" stroke-width="4" stroke-miterlimit="10" x1="172.385" y1="22.479" x2="172.385" y2="80.327"/>
</g>
</svg>
