<svg id="Icons" xmlns="http://www.w3.org/2000/svg" viewBox="0 0 66.24 66.24"><defs><style>.cls-1{fill:#29a7df;}.cls-2{fill:#fff;}</style></defs><path class="cls-1" d="M33.12,0A33.12,33.12,0,1,0,66.24,33.12,33.12,33.12,0,0,0,33.12,0"/><path class="cls-2" d="M9.3,19.42a1.86,1.86,0,0,1,2.67-.5c1,.63,2.1,1.22,3.14,1.83a2.23,2.23,0,0,1,.87.77,1.7,1.7,0,0,1-.51,2.26,1.56,1.56,0,0,1-.39.19,1.68,1.68,0,0,1-1.55-.2c-.22-.11-.42-.27-.65-.37-.72-.41-1.42-.84-2.15-1.23-.32-.21-.66-.39-1-.61a1.61,1.61,0,0,1-.64-1.81A.56.56,0,0,1,9.3,19.42Z"/><path class="cls-2" d="M5.75,32.72a1.66,1.66,0,0,1,1.78-1.26h.35a.6.6,0,0,1,.41-.11c.56,0,1.12,0,1.69,0a10.47,10.47,0,0,1,2.09.07,1.74,1.74,0,0,1,1.26,1.75,1.71,1.71,0,0,1-1.2,1.55,1.09,1.09,0,0,1-.4.07H7.26C6.12,34.68,5.61,34,5.75,32.72Z"/><path class="cls-2" d="M60.48,33.42A1.65,1.65,0,0,1,59,34.7c-1.46.16-2.92.07-4.38.09a.9.9,0,0,1-.28,0L54,34.68a1.72,1.72,0,0,1,0-3.22l.13,0a11,11,0,0,1,2.07-.07c.68,0,1.36,0,2,0a7.42,7.42,0,0,1,.82,0A1.53,1.53,0,0,1,60.51,33,1.63,1.63,0,0,1,60.48,33.42Z"/><path class="cls-2" d="M53.41,19.42a1.39,1.39,0,0,0,.7-.31,4.38,4.38,0,0,1,1.1-.5,1.48,1.48,0,0,1,1.71.79,1.69,1.69,0,0,1-.36,2.1c-.38.25-.78.48-1.18.72-.69.37-1.36.79-2,1.18-.24.15-.5.28-.75.42a1.61,1.61,0,0,1-1.37.15,2.77,2.77,0,0,1-.55-.26,1.77,1.77,0,0,1-.5-2.08,2.42,2.42,0,0,1,1-.93C51.93,20.29,52.65,19.83,53.41,19.42Z"/><path class="cls-2" d="M9.3,46.75a1.7,1.7,0,0,1,.56-2.11l.93-.55a2.6,2.6,0,0,1,.8-.55c.42-.24.83-.49,1.26-.72.21-.12.43-.25.63-.39a2.33,2.33,0,0,1,1-.31.52.52,0,0,1,.42.16l.56.31a1.06,1.06,0,0,1,.63.92,1.71,1.71,0,0,1-.08,1,2.29,2.29,0,0,1-1,1c-.71.42-1.44.79-2.12,1.26a11,11,0,0,0-1.12.62,2.86,2.86,0,0,1-1,.34,1.69,1.69,0,0,1-1.31-.58.59.59,0,0,1-.18-.37Z"/><path class="cls-2" d="M56.82,46.73a1.79,1.79,0,0,1-1.08.8,2.33,2.33,0,0,1-2.21-.78.6.6,0,0,0-.3-.17A4.64,4.64,0,0,1,52,45.94c-.32-.16-.63-.34-.94-.53a2.76,2.76,0,0,1-.85-.78,1.66,1.66,0,0,1,.43-2.17,1.41,1.41,0,0,1,.38-.21,1.68,1.68,0,0,1,1.75.21l.5.29c.61.34,1.21.71,1.83,1a1.18,1.18,0,0,1,.32.27l1,.64a1.8,1.8,0,0,1,.57,1,1,1,0,0,1,0,.54Z"/><path class="cls-2" d="M25.79,44.39l-.2.06c2.73,1.28,7.2,2.84,11.68,2,4.76-1,8.56-4.47,10.58-6.74-.3.08-.68.14-1,.2-.8.13-1.69.22-2.54.29L43,40.29a3.68,3.68,0,0,1-2.53-.53,4.75,4.75,0,0,1-1.17.37A4.64,4.64,0,0,1,37,39.88a1.44,1.44,0,0,1-.46-.21,6.89,6.89,0,0,1-4.32,2.5,9.69,9.69,0,0,1-1,.08,3.83,3.83,0,0,1-1.71-.43A7.28,7.28,0,0,1,25.79,44.39Z"/><path class="cls-2" d="M16.37,33.69c0-.13,0-.26,0-.37C16.34,33.43,16.35,33.56,16.37,33.69Z"/><path class="cls-2" d="M16.32,33.1v0Z"/><path class="cls-2" d="M16.32,33v0Z"/><path class="cls-2" d="M16.64,34.74c0-.09-.05-.17-.08-.25C16.59,34.57,16.61,34.65,16.64,34.74Z"/><path class="cls-2" d="M16.42,34a2.07,2.07,0,0,1,0-.22A2.07,2.07,0,0,0,16.42,34Z"/><path class="cls-2" d="M16.51,34.33l-.06-.23Z"/><path class="cls-2" d="M18.8,38.84l.1.14a19.52,19.52,0,0,0,2.37,2.91,4.11,4.11,0,0,0,4,1.27,6.1,6.1,0,0,0,3-2,14.52,14.52,0,0,1-4.58-5.38.64.64,0,0,1,.26-.83.63.63,0,0,1,.83.25,13,13,0,0,0,4.59,5.3l.13.08a3,3,0,0,0,1.58.49A5.74,5.74,0,0,0,35.41,39a25.65,25.65,0,0,1-5.14-6.41.6.6,0,1,1,1-.6,22.53,22.53,0,0,0,5.21,6.39s0,.06.1.08a2.65,2.65,0,0,0,.59.32,3.2,3.2,0,0,0,2.12.06c0-.06-.07-.13-.12-.19a4.42,4.42,0,0,1,.11-4.42,3.71,3.71,0,0,1,1-.76A34.59,34.59,0,0,1,37,29.1a.61.61,0,0,1,1-.67,41,41,0,0,0,3.37,4.49,17.4,17.4,0,0,1,6.88-.35A44.68,44.68,0,0,0,40,21.41c-.86-.82-1.38-1.4-2.37-1.44a2.71,2.71,0,0,0-2.84,2.76A3,3,0,0,0,35,23.84l0,0a1,1,0,0,1-.48,1.08l-.08.05a1,1,0,0,1-1.12-.16,2.68,2.68,0,0,0-2-1.16A2.64,2.64,0,0,0,28.47,26a2.76,2.76,0,0,0,.18,1.25,1,1,0,0,1-1.78.81v0A2.76,2.76,0,0,0,25,27.22a2.51,2.51,0,0,0-2.62,2.57,2.79,2.79,0,0,0,.23,1.11.57.57,0,0,1,0,.18h0a.83.83,0,0,1-.38.67l-.08.05a.81.81,0,0,1-1-.08v0a2.84,2.84,0,0,0-2.09-1.11,2.56,2.56,0,0,0-2.52,1.59,2,2,0,0,0-.21,1v0a.49.49,0,0,0,0,.12,2.66,2.66,0,0,0,.09.75A13.08,13.08,0,0,0,18.8,38.84Z"/><path class="cls-2" d="M49.66,34.82c0-.07-.08-.17-.1-.28a1.55,1.55,0,0,0-1-.8,16.32,16.32,0,0,0-7.08.37l-.11,0a3,3,0,0,0-1.13.75,3.66,3.66,0,0,0,0,3.21,2.31,2.31,0,0,0,2.44,1.07c.43-.08.87-.12,1.32-.16,3.57-.36,5.94-.71,5.93-2.33A5.41,5.41,0,0,0,49.66,34.82Zm-5.34,3.26a.31.31,0,0,1-.29.2h-.11a.31.31,0,0,1-.18-.4,3.41,3.41,0,0,0-.46-3.27.31.31,0,0,1,0-.44.29.29,0,0,1,.22-.07.31.31,0,0,1,.22.11A4,4,0,0,1,44.32,38.08Z"/></svg>